<?xml version="1.0" encoding="UTF-8"?>
<svg xmlns="http://www.w3.org/2000/svg" id="Layer_1" data-name="Layer 1" viewBox="0 0 24 24">
  <path d="m20.354,18.025c-.651-.651-1.554-1.025-2.475-1.025h-4.556c.01-.009.022-.016.031-.025l1.061-1.061c.78-.779.78-2.049,0-2.828l-1.061-1.061c-.651-.651-1.554-1.025-2.475-1.025h-3.556c.01-.009.022-.016.031-.025l1.061-1.061c.78-.779.78-2.049,0-2.828l-1.061-1.061c-.651-.651-1.554-1.025-2.475-1.025h-2.379c-1.378,0-2.5,1.121-2.5,2.5v2c0,.821.403,1.544,1.015,2-.613.456-1.015,1.179-1.015,2v2c0,.821.403,1.544,1.015,2-.613.456-1.015,1.179-1.015,2v2c0,1.379,1.122,2.5,2.5,2.5h15.379c.921,0,1.823-.374,2.475-1.025l1.061-1.061c.78-.779.78-2.049,0-2.828l-1.061-1.061ZM1,9.5v-2c0-.827.673-1.5,1.5-1.5h2.379c.658,0,1.302.267,1.768.732l1.061,1.061c.39.39.39,1.024,0,1.414l-1.061,1.061c-.465.466-1.11.732-1.768.732h-2.379c-.827,0-1.5-.673-1.5-1.5Zm0,6v-2c0-.827.673-1.5,1.5-1.5h8.379c.658,0,1.302.267,1.768.732l1.061,1.061c.39.39.39,1.024,0,1.414l-1.061,1.061c-.465.466-1.11.732-1.768.732H2.5c-.827,0-1.5-.673-1.5-1.5Zm19.707,5.707l-1.061,1.061c-.465.466-1.11.732-1.768.732H2.5c-.827,0-1.5-.673-1.5-1.5v-2c0-.827.673-1.5,1.5-1.5h15.379c.658,0,1.302.267,1.768.732l1.061,1.061c.39.39.39,1.024,0,1.414Zm-2.707-17.207c-1.103,0-2,.897-2,2s.897,2,2,2,2-.897,2-2-.897-2-2-2Zm0,3c-.551,0-1-.448-1-1s.449-1,1-1,1,.448,1,1-.449,1-1,1Zm4.64-.013s0,0,0,0l-.233-.137c.064-.299.094-.575.094-.85s-.03-.551-.094-.85l.234-.138c.345-.203.591-.528.691-.916.101-.389.044-.792-.159-1.137-.203-.346-.528-.592-.917-.692-.386-.103-.792-.044-1.137.159l-.223.131c-.408-.34-.881-.606-1.396-.786v-.271c0-.827-.673-1.5-1.5-1.5s-1.5.673-1.5,1.5v.271c-.515.18-.988.446-1.396.786l-.223-.131c-.346-.203-.749-.262-1.137-.159-.388.101-.713.347-.916.691-.204.346-.26.749-.16,1.138.101.388.346.713.692.917l.233.137c-.064.299-.094.575-.094.85s.03.551.094.85l-.234.138c-.345.203-.591.528-.691.916-.101.389-.044.792.159,1.137.203.346.528.592.917.692.388.104.792.045,1.137-.159l.223-.131c.408.34.881.606,1.396.786v.271c0,.827.673,1.5,1.5,1.5s1.5-.673,1.5-1.5v-.271c.515-.18.988-.446,1.396-.786l.223.131c.346.204.751.263,1.137.159.388-.101.713-.347.916-.691.204-.346.26-.749.16-1.138-.101-.388-.346-.713-.691-.916Zm-1.291-1.942c.103.361.151.665.151.955s-.048.594-.151.955c-.062.219.031.453.228.568l.556.326c.115.067.197.176.23.306.034.129.015.264-.053.379s-.176.197-.305.23c-.129.034-.264.016-.379-.053l-.541-.318c-.195-.116-.447-.084-.607.077-.43.432-.984.743-1.603.903-.221.058-.375.257-.375.484v.642c0,.275-.224.5-.5.5s-.5-.225-.5-.5v-.642c0-.228-.154-.427-.375-.484-.619-.16-1.173-.472-1.603-.903-.096-.097-.225-.146-.354-.146-.087,0-.175.022-.253.069l-.541.318c-.115.068-.25.086-.379.053-.129-.033-.237-.115-.306-.231-.067-.114-.086-.249-.053-.378.034-.13.115-.238.23-.306l.556-.326c.197-.115.291-.35.228-.568-.103-.361-.151-.665-.151-.955s.048-.594.151-.955c.062-.219-.031-.453-.228-.568l-.556-.325c-.115-.068-.197-.177-.23-.307-.034-.129-.015-.264.053-.379s.176-.197.305-.23c.13-.032.264-.015.379.053l.541.318c.195.116.447.084.607-.077.43-.432.984-.743,1.603-.903.221-.058.375-.257.375-.484v-.642c0-.275.224-.5.5-.5s.5.225.5.5v.642c0,.228.154.427.375.484.619.16,1.173.472,1.603.903.161.161.412.193.607.077l.541-.318c.115-.068.249-.086.379-.053.129.033.237.115.306.231.067.114.086.249.053.378-.034.13-.115.238-.23.306l-.556.326c-.197.115-.291.35-.228.568Z"/>
</svg>
